<?xml version="1.0" encoding="UTF-8" standalone="no"?>
<!DOCTYPE svg PUBLIC "-//W3C//DTD SVG 1.1//EN"
 "http://www.w3.org/Graphics/SVG/1.1/DTD/svg11.dtd">
<!-- Generated by graphviz version 2.46.0 (20210119.1425)
 -->
<!-- Title: dependencies Pages: 1 -->
<svg width="1533pt" height="284pt"
 viewBox="0.00 0.00 1533.00 284.00" xmlns="http://www.w3.org/2000/svg" xmlns:xlink="http://www.w3.org/1999/xlink">
<g id="graph0" class="graph" transform="scale(1 1) rotate(0) translate(4 280)">
<title>dependencies</title>
<polygon fill="white" stroke="transparent" points="-4,4 -4,-280 1529,-280 1529,4 -4,4"/>
<text text-anchor="start" x="741.51" y="-42.4" font-family="sans-serif" font-weight="bold" font-size="14.00">Legend</text>
<polygon fill="#ffffb3" stroke="transparent" points="528.5,-10 528.5,-30 548.5,-30 548.5,-10 528.5,-10"/>
<text text-anchor="start" x="552.13" y="-15.4" font-family="sans-serif" font-size="14.00"> &#160;Declarations</text>
<polygon fill="#8dd3c7" stroke="transparent" points="641.5,-10 641.5,-30 661.5,-30 661.5,-10 641.5,-10"/>
<text text-anchor="start" x="665.23" y="-15.4" font-family="sans-serif" font-size="14.00"> &#160;Module</text>
<polygon fill="#80b1d3" stroke="transparent" points="727.5,-10 727.5,-30 747.5,-30 747.5,-10 727.5,-10"/>
<text text-anchor="start" x="751.28" y="-15.4" font-family="sans-serif" font-size="14.00"> &#160;Bootstrap</text>
<polygon fill="#fdb462" stroke="transparent" points="824.5,-10 824.5,-30 844.5,-30 844.5,-10 824.5,-10"/>
<text text-anchor="start" x="848.17" y="-15.4" font-family="sans-serif" font-size="14.00"> &#160;Providers</text>
<polygon fill="#fb8072" stroke="transparent" points="920.5,-10 920.5,-30 940.5,-30 940.5,-10 920.5,-10"/>
<text text-anchor="start" x="944.23" y="-15.4" font-family="sans-serif" font-size="14.00"> &#160;Exports</text>
<g id="clust1" class="cluster">
<title>cluster_AppModule</title>
<polygon fill="none" stroke="black" stroke-dasharray="1,5" points="8,-70 8,-268 1517,-268 1517,-70 8,-70"/>
</g>
<g id="clust13" class="cluster">
<title>cluster_AppModule_bootstrap</title>
<polygon fill="none" stroke="black" points="751,-208 751,-260 875,-260 875,-208 751,-208"/>
</g>
<g id="clust14" class="cluster">
<title>cluster_AppModule_providers</title>
<polygon fill="none" stroke="black" points="1385,-78 1385,-130 1509,-130 1509,-78 1385,-78"/>
</g>
<g id="clust11" class="cluster">
<title>cluster_AppModule_imports</title>
<polygon fill="none" stroke="black" points="1233,-78 1233,-130 1377,-130 1377,-78 1233,-78"/>
</g>
<g id="clust2" class="cluster">
<title>cluster_AppModule_declarations</title>
<polygon fill="none" stroke="black" points="16,-78 16,-130 1225,-130 1225,-78 16,-78"/>
</g>
<!-- AppComponent -->
<g id="node1" class="node">
<title>AppComponent</title>
<polygon fill="#ffffb3" stroke="black" points="1216.94,-122 1111.06,-122 1111.06,-86 1216.94,-86 1216.94,-122"/>
<text text-anchor="middle" x="1164" y="-99.8" font-family="Times,serif" font-size="14.00">AppComponent</text>
</g>
<!-- AppModule -->
<g id="node9" class="node">
<title>AppModule</title>
<polygon fill="#8dd3c7" stroke="black" points="854.66,-187 851.66,-191 830.66,-191 827.66,-187 771.34,-187 771.34,-151 854.66,-151 854.66,-187"/>
<text text-anchor="middle" x="813" y="-164.8" font-family="Times,serif" font-size="14.00">AppModule</text>
</g>
<!-- AppComponent&#45;&gt;AppModule -->
<g id="edge1" class="edge">
<title>AppComponent&#45;&gt;AppModule</title>
<path fill="none" stroke="black" d="M1164,-122.27C1164,-140.56 1164,-166 1164,-166 1164,-166 864.99,-166 864.99,-166"/>
<polygon fill="black" stroke="black" points="864.99,-162.5 854.99,-166 864.99,-169.5 864.99,-162.5"/>
</g>
<!-- BigNumberDirective -->
<g id="node2" class="node">
<title>BigNumberDirective</title>
<polygon fill="#ffffb3" stroke="black" points="1093.18,-122 958.82,-122 958.82,-86 1093.18,-86 1093.18,-122"/>
<text text-anchor="middle" x="1026" y="-99.8" font-family="Times,serif" font-size="14.00">BigNumberDirective</text>
</g>
<!-- BigNumberDirective&#45;&gt;AppModule -->
<g id="edge2" class="edge">
<title>BigNumberDirective&#45;&gt;AppModule</title>
<path fill="none" stroke="black" d="M1026,-122.01C1026,-138.05 1026,-159 1026,-159 1026,-159 864.83,-159 864.83,-159"/>
<polygon fill="black" stroke="black" points="864.83,-155.5 854.83,-159 864.83,-162.5 864.83,-155.5"/>
</g>
<!-- BigNumberFormat -->
<g id="node3" class="node">
<title>BigNumberFormat</title>
<polygon fill="#ffffb3" stroke="black" points="941.04,-122 818.96,-122 818.96,-86 941.04,-86 941.04,-122"/>
<text text-anchor="middle" x="880" y="-99.8" font-family="Times,serif" font-size="14.00">BigNumberFormat</text>
</g>
<!-- BigNumberFormat&#45;&gt;AppModule -->
<g id="edge3" class="edge">
<title>BigNumberFormat&#45;&gt;AppModule</title>
<path fill="none" stroke="black" d="M836.78,-122.11C836.78,-122.11 836.78,-140.99 836.78,-140.99"/>
<polygon fill="black" stroke="black" points="833.28,-140.99 836.78,-150.99 840.28,-140.99 833.28,-140.99"/>
</g>
<!-- BigNumberMax -->
<g id="node4" class="node">
<title>BigNumberMax</title>
<polygon fill="#ffffb3" stroke="black" points="800.76,-122 693.24,-122 693.24,-86 800.76,-86 800.76,-122"/>
<text text-anchor="middle" x="747" y="-99.8" font-family="Times,serif" font-size="14.00">BigNumberMax</text>
</g>
<!-- BigNumberMax&#45;&gt;AppModule -->
<g id="edge4" class="edge">
<title>BigNumberMax&#45;&gt;AppModule</title>
<path fill="none" stroke="black" d="M786.03,-122.11C786.03,-122.11 786.03,-140.99 786.03,-140.99"/>
<polygon fill="black" stroke="black" points="782.53,-140.99 786.03,-150.99 789.53,-140.99 782.53,-140.99"/>
</g>
<!-- BigNumberMin -->
<g id="node5" class="node">
<title>BigNumberMin</title>
<polygon fill="#ffffb3" stroke="black" points="674.94,-122 569.06,-122 569.06,-86 674.94,-86 674.94,-122"/>
<text text-anchor="middle" x="622" y="-99.8" font-family="Times,serif" font-size="14.00">BigNumberMin</text>
</g>
<!-- BigNumberMin&#45;&gt;AppModule -->
<g id="edge5" class="edge">
<title>BigNumberMin&#45;&gt;AppModule</title>
<path fill="none" stroke="black" d="M622,-122.01C622,-138.05 622,-159 622,-159 622,-159 761.08,-159 761.08,-159"/>
<polygon fill="black" stroke="black" points="761.08,-162.5 771.08,-159 761.08,-155.5 761.08,-162.5"/>
</g>
<!-- CalculatePipe -->
<g id="node6" class="node">
<title>CalculatePipe</title>
<polygon fill="#ffffb3" stroke="black" points="550.75,-122 457.25,-122 457.25,-86 550.75,-86 550.75,-122"/>
<text text-anchor="middle" x="504" y="-99.8" font-family="Times,serif" font-size="14.00">CalculatePipe</text>
</g>
<!-- CalculatePipe&#45;&gt;AppModule -->
<g id="edge6" class="edge">
<title>CalculatePipe&#45;&gt;AppModule</title>
<path fill="none" stroke="black" d="M504,-122.27C504,-140.56 504,-166 504,-166 504,-166 761.33,-166 761.33,-166"/>
<polygon fill="black" stroke="black" points="761.33,-169.5 771.33,-166 761.33,-162.5 761.33,-169.5"/>
</g>
<!-- MetamaskErrorComponent -->
<g id="node7" class="node">
<title>MetamaskErrorComponent</title>
<polygon fill="#ffffb3" stroke="black" points="439.68,-122 270.32,-122 270.32,-86 439.68,-86 439.68,-122"/>
<text text-anchor="middle" x="355" y="-99.8" font-family="Times,serif" font-size="14.00">MetamaskErrorComponent</text>
</g>
<!-- MetamaskErrorComponent&#45;&gt;AppModule -->
<g id="edge7" class="edge">
<title>MetamaskErrorComponent&#45;&gt;AppModule</title>
<path fill="none" stroke="black" d="M355,-122.13C355,-142.57 355,-173 355,-173 355,-173 761.14,-173 761.14,-173"/>
<polygon fill="black" stroke="black" points="761.14,-176.5 771.14,-173 761.14,-169.5 761.14,-176.5"/>
</g>
<!-- TransactionSuccessModalComponent -->
<g id="node8" class="node">
<title>TransactionSuccessModalComponent</title>
<polygon fill="#ffffb3" stroke="black" points="252.28,-122 23.72,-122 23.72,-86 252.28,-86 252.28,-122"/>
<text text-anchor="middle" x="138" y="-99.8" font-family="Times,serif" font-size="14.00">TransactionSuccessModalComponent</text>
</g>
<!-- TransactionSuccessModalComponent&#45;&gt;AppModule -->
<g id="edge8" class="edge">
<title>TransactionSuccessModalComponent&#45;&gt;AppModule</title>
<path fill="none" stroke="black" d="M138,-122.01C138,-144.49 138,-180 138,-180 138,-180 761.29,-180 761.29,-180"/>
<polygon fill="black" stroke="black" points="761.29,-183.5 771.29,-180 761.29,-176.5 761.29,-183.5"/>
</g>
<!-- AppComponent  -->
<g id="node11" class="node">
<title>AppComponent </title>
<polygon fill="#80b1d3" stroke="black" points="867.44,-252 758.56,-252 758.56,-216 867.44,-216 867.44,-252"/>
<text text-anchor="middle" x="813" y="-229.8" font-family="Times,serif" font-size="14.00">AppComponent </text>
</g>
<!-- AppModule&#45;&gt;AppComponent  -->
<g id="edge10" class="edge">
<title>AppModule&#45;&gt;AppComponent </title>
<path fill="none" stroke="black" stroke-dasharray="1,5" d="M813,-187.11C813,-187.11 813,-205.99 813,-205.99"/>
<polygon fill="black" stroke="black" points="809.5,-205.99 813,-215.99 816.5,-205.99 809.5,-205.99"/>
</g>
<!-- AppRoutingModule -->
<g id="node10" class="node">
<title>AppRoutingModule</title>
<polygon fill="#8dd3c7" stroke="black" points="1369.27,-122 1366.27,-126 1345.27,-126 1342.27,-122 1240.73,-122 1240.73,-86 1369.27,-86 1369.27,-122"/>
<text text-anchor="middle" x="1305" y="-99.8" font-family="Times,serif" font-size="14.00">AppRoutingModule</text>
</g>
<!-- AppRoutingModule&#45;&gt;AppModule -->
<g id="edge9" class="edge">
<title>AppRoutingModule&#45;&gt;AppModule</title>
<path fill="none" stroke="black" d="M1305,-122.13C1305,-142.57 1305,-173 1305,-173 1305,-173 864.95,-173 864.95,-173"/>
<polygon fill="black" stroke="black" points="864.95,-169.5 854.95,-173 864.95,-176.5 864.95,-169.5"/>
</g>
<!-- AppConfig -->
<g id="node12" class="node">
<title>AppConfig</title>
<ellipse fill="#fdb462" stroke="black" cx="1447" cy="-104" rx="54.48" ry="18"/>
<text text-anchor="middle" x="1447" y="-99.8" font-family="Times,serif" font-size="14.00">AppConfig</text>
</g>
<!-- AppConfig&#45;&gt;AppModule -->
<g id="edge11" class="edge">
<title>AppConfig&#45;&gt;AppModule</title>
<path fill="none" stroke="black" d="M1447,-122.01C1447,-144.49 1447,-180 1447,-180 1447,-180 865.09,-180 865.09,-180"/>
<polygon fill="black" stroke="black" points="865.09,-176.5 855.09,-180 865.09,-183.5 865.09,-176.5"/>
</g>
</g>
</svg>
