<svg width="18" height="19" viewBox="0 0 18 19" fill="none" xmlns="http://www.w3.org/2000/svg">
<path d="M15.3644 3.1359C11.8497 -0.378439 6.15103 -0.37883 2.6359 3.1359C-0.87883 6.65064 -0.878439 12.3493 2.6359 15.8644C6.15064 19.3783 11.8493 19.3787 15.3644 15.8644C18.8787 12.3493 18.8783 6.65103 15.3644 3.1359ZM10.1737 13.4132C10.1737 14.0616 9.64815 14.5872 8.99976 14.5872C8.35136 14.5872 7.82583 14.0616 7.82583 13.4132V8.71753C7.82583 8.06913 8.35136 7.5436 8.99976 7.5436C9.64815 7.5436 10.1737 8.06913 10.1737 8.71753V13.4132ZM8.97902 6.7109C8.30283 6.7109 7.85205 6.23194 7.86613 5.64067C7.85205 5.02084 8.30284 4.55635 8.99271 4.55635C9.68298 4.55635 10.1197 5.02123 10.1342 5.64067C10.1338 6.23194 9.68337 6.7109 8.97902 6.7109Z" fill="#EC8C50"/>
</svg>
